<svg xmlns="http://www.w3.org/2000/svg" viewBox="0 0 48 48">
  <!-- Shield background -->
  <path d="M24 4 L42 10 L42 24 C42 34 33 42 24 46 C15 42 6 34 6 24 L6 10 Z"
        fill="#2E7D32" stroke="#1B5E20" stroke-width="1.5"/>

  <!-- Inner shield highlight -->
  <path d="M24 7 L39 12 L39 24 C39 32 31 39 24 43 C17 39 9 32 9 24 L9 12 Z"
        fill="#43A047"/>

  <!-- Lock body -->
  <rect x="17" y="22" width="14" height="12" rx="2" fill="#FFF" opacity="0.95"/>

  <!-- Lock shackle -->
  <path d="M20 22 L20 18 C20 14.7 21.8 12 24 12 C26.2 12 28 14.7 28 18 L28 22"
        fill="none" stroke="#FFF" stroke-width="3" stroke-linecap="round" opacity="0.95"/>

  <!-- Keyhole -->
  <circle cx="24" cy="27" r="2" fill="#2E7D32"/>
  <rect x="23" y="27" width="2" height="4" fill="#2E7D32"/>
</svg>
